<mxfile host="app.diagrams.net" modified="2024-03-29T02:24:35.571Z" agent="Mozilla/5.0 (Macintosh; Intel Mac OS X 10_15_7) AppleWebKit/537.36 (KHTML, like Gecko) Chrome/122.0.0.0 Safari/537.36" etag="oXqX5lpoF6_1nMMTtKmV" version="22.1.17" type="google" pages="2">
  <diagram name="Page-1" id="UdlNqicVre9VuommbTPU">
    <mxGraphModel grid="0" page="1" gridSize="10" guides="1" tooltips="1" connect="1" arrows="1" fold="1" pageScale="1" pageWidth="850" pageHeight="1100" background="#000000" math="0" shadow="0">
      <root>
        <mxCell id="0" />
        <mxCell id="1" parent="0" />
        <mxCell id="Nhw3zXUjgfwCn45Vr-Qx-5" value="" style="rounded=0;whiteSpace=wrap;html=1;fillColor=#000000;strokeColor=#FFFFFF;" vertex="1" parent="1">
          <mxGeometry x="-262" y="-475" width="893" height="1686" as="geometry" />
        </mxCell>
        <mxCell id="NxOFG_oA1AnHpCEWyoos-6" style="edgeStyle=orthogonalEdgeStyle;rounded=0;orthogonalLoop=1;jettySize=auto;html=1;dashed=1;strokeColor=#99FFFF;flowAnimation=1;exitX=0.596;exitY=-0.012;exitDx=0;exitDy=0;strokeWidth=2;entryX=0.5;entryY=1;entryDx=0;entryDy=0;exitPerimeter=0;curved=1;startArrow=classic;startFill=1;endArrow=none;endFill=0;" edge="1" parent="1" source="NxOFG_oA1AnHpCEWyoos-7" target="NxOFG_oA1AnHpCEWyoos-4">
          <mxGeometry relative="1" as="geometry">
            <mxPoint x="250" y="110" as="targetPoint" />
            <mxPoint x="250" y="300" as="sourcePoint" />
          </mxGeometry>
        </mxCell>
        <mxCell id="NxOFG_oA1AnHpCEWyoos-4" value="" style="strokeColor=#FF99CC;shadow=1;strokeWidth=2;rounded=1;absoluteArcSize=1;arcSize=2;fillColor=#000000;" vertex="1" parent="1">
          <mxGeometry x="-47" y="86" width="148" height="55.5" as="geometry" />
        </mxCell>
        <mxCell id="NxOFG_oA1AnHpCEWyoos-5" value="&lt;font color=&quot;#ffffff&quot; style=&quot;font-size: 16px;&quot;&gt;Cloud&lt;br&gt;Storage&lt;/font&gt;" style="editableCssRules=.*;html=1;fontColor=#999999;shape=image;verticalLabelPosition=middle;verticalAlign=middle;labelPosition=right;align=left;spacingLeft=20;part=1;points=[];imageAspect=0;image=data:image/svg+xml,PHN2ZyB4bWxucz0iaHR0cDovL3d3dy53My5vcmcvMjAwMC9zdmciIHhtbG5zOnY9Imh0dHBzOi8vdmVjdGEuaW8vbmFubyIgd2lkdGg9IjIwIiBoZWlnaHQ9IjE2IiB2aWV3Qm94PSIwIDAgMjAgMTYiPiYjeGE7CTxzdHlsZSB0eXBlPSJ0ZXh0L2NzcyI+JiN4YTsJLnN0MHtmaWxsOiM0Mjg1ZjQ7fSYjeGE7CS5zdDF7ZmlsbDojNjY5ZGY2O30mI3hhOwkuc3Qye2ZpbGw6I2FlY2JmYTt9JiN4YTsJLnN0M3tmaWxsOiNmZmY7fSYjeGE7CTwvc3R5bGU+JiN4YTsJPHBhdGggY2xhc3M9InN0MiIgZD0iTTAgMGgyMHY3SDB6Ii8+JiN4YTsJPHBhdGggY2xhc3M9InN0MSIgZD0iTTE4IDBoMnY3aC0yeiIvPiYjeGE7CTxwYXRoIGNsYXNzPSJzdDAiIGQ9Ik0xOCA3bDItN2gtMnoiLz4mI3hhOwk8cGF0aCBjbGFzcz0ic3QxIiBkPSJNMCAwaDJ2N0gweiIvPiYjeGE7CTxnIGNsYXNzPSJzdDMiPiYjeGE7CQk8cGF0aCBkPSJNNCAzaDZ2MUg0eiIvPiYjeGE7CQk8cmVjdCB4PSIxMyIgeT0iMiIgd2lkdGg9IjMiIGhlaWdodD0iMyIgcng9IjEuNSIvPiYjeGE7CTwvZz4mI3hhOwk8cGF0aCBjbGFzcz0ic3QyIiBkPSJNMCA5aDIwdjdIMHoiLz4mI3hhOwk8cGF0aCBjbGFzcz0ic3QxIiBkPSJNMTggOWgydjdoLTJ6Ii8+JiN4YTsJPHBhdGggY2xhc3M9InN0MCIgZD0iTTE4IDE2bDItN2gtMnoiLz4mI3hhOwk8cGF0aCBjbGFzcz0ic3QxIiBkPSJNMCA5aDJ2N0gweiIvPiYjeGE7CTxnIGNsYXNzPSJzdDMiPiYjeGE7CQk8cGF0aCBkPSJNNCAxMmg2djFINHoiLz4mI3hhOwkJPHJlY3QgeD0iMTMiIHk9IjExIiB3aWR0aD0iMyIgaGVpZ2h0PSIzIiByeD0iMS41Ii8+JiN4YTsJPC9nPiYjeGE7PC9zdmc+;" vertex="1" parent="NxOFG_oA1AnHpCEWyoos-4">
          <mxGeometry width="30" height="24" relative="1" as="geometry">
            <mxPoint x="15" y="18" as="offset" />
          </mxGeometry>
        </mxCell>
        <mxCell id="NxOFG_oA1AnHpCEWyoos-11" style="edgeStyle=orthogonalEdgeStyle;rounded=0;orthogonalLoop=1;jettySize=auto;html=1;exitX=1;exitY=0.5;exitDx=0;exitDy=0;entryX=0.5;entryY=0;entryDx=0;entryDy=0;curved=1;flowAnimation=1;" edge="1" parent="1" source="NxOFG_oA1AnHpCEWyoos-7" target="NxOFG_oA1AnHpCEWyoos-9">
          <mxGeometry relative="1" as="geometry" />
        </mxCell>
        <mxCell id="NxOFG_oA1AnHpCEWyoos-13" style="edgeStyle=orthogonalEdgeStyle;rounded=0;orthogonalLoop=1;jettySize=auto;html=1;entryX=0.5;entryY=0;entryDx=0;entryDy=0;strokeColor=#0066CC;strokeWidth=2;flowAnimation=1;curved=1;exitX=0.568;exitY=1.075;exitDx=0;exitDy=0;exitPerimeter=0;" edge="1" parent="1" source="NxOFG_oA1AnHpCEWyoos-7" target="NxOFG_oA1AnHpCEWyoos-9">
          <mxGeometry relative="1" as="geometry">
            <Array as="points">
              <mxPoint x="334" y="395" />
              <mxPoint x="21" y="395" />
            </Array>
          </mxGeometry>
        </mxCell>
        <mxCell id="NxOFG_oA1AnHpCEWyoos-7" value="&lt;b&gt;&lt;font style=&quot;font-size: 14px;&quot;&gt;Data Loader&amp;nbsp;&lt;/font&gt;&lt;/b&gt;" style="rounded=1;whiteSpace=wrap;html=1;fillColor=#000000;fontColor=#ffffff;strokeColor=#0066CC;strokeWidth=2;direction=east;" vertex="1" parent="1">
          <mxGeometry x="243" y="271.25" width="160" height="71" as="geometry" />
        </mxCell>
        <mxCell id="NxOFG_oA1AnHpCEWyoos-8" value="&lt;font color=&quot;#ffffff&quot; style=&quot;font-size: 14px;&quot;&gt;&lt;b&gt;1&lt;/b&gt;&lt;/font&gt;" style="ellipse;whiteSpace=wrap;html=1;aspect=fixed;fillColor=#000000;strokeColor=#FFFFFF;strokeWidth=2;" vertex="1" parent="1">
          <mxGeometry x="161" y="-183" width="32" height="32" as="geometry" />
        </mxCell>
        <mxCell id="NxOFG_oA1AnHpCEWyoos-17" style="edgeStyle=orthogonalEdgeStyle;rounded=0;orthogonalLoop=1;jettySize=auto;html=1;exitX=0.5;exitY=1;exitDx=0;exitDy=0;entryX=0.5;entryY=0;entryDx=0;entryDy=0;strokeColor=#0066CC;strokeWidth=2;curved=1;flowAnimation=1;" edge="1" parent="1" source="NxOFG_oA1AnHpCEWyoos-9" target="NxOFG_oA1AnHpCEWyoos-15">
          <mxGeometry relative="1" as="geometry" />
        </mxCell>
        <mxCell id="NxOFG_oA1AnHpCEWyoos-9" value="&lt;b&gt;&lt;font style=&quot;font-size: 14px;&quot;&gt;Cleansing &amp;amp; Transform&lt;/font&gt;&lt;/b&gt;" style="rounded=1;whiteSpace=wrap;html=1;fillColor=#000000;fontColor=#ffffff;strokeColor=#0066CC;strokeWidth=2;" vertex="1" parent="1">
          <mxGeometry x="-88" y="442" width="189" height="75" as="geometry" />
        </mxCell>
        <mxCell id="NxOFG_oA1AnHpCEWyoos-20" style="edgeStyle=orthogonalEdgeStyle;rounded=0;orthogonalLoop=1;jettySize=auto;html=1;exitX=0.5;exitY=1;exitDx=0;exitDy=0;entryX=0.5;entryY=0;entryDx=0;entryDy=0;strokeColor=#0066CC;strokeWidth=2;curved=1;flowAnimation=1;" edge="1" parent="1" source="NxOFG_oA1AnHpCEWyoos-15" target="NxOFG_oA1AnHpCEWyoos-21">
          <mxGeometry relative="1" as="geometry" />
        </mxCell>
        <mxCell id="NxOFG_oA1AnHpCEWyoos-15" value="&lt;b&gt;&lt;font style=&quot;font-size: 14px;&quot;&gt;De-duplication&lt;/font&gt;&lt;/b&gt;" style="rounded=1;whiteSpace=wrap;html=1;fillColor=#000000;fontColor=#ffffff;strokeColor=#0066CC;strokeWidth=2;" vertex="1" parent="1">
          <mxGeometry x="252" y="586" width="160" height="69" as="geometry" />
        </mxCell>
        <mxCell id="Nhw3zXUjgfwCn45Vr-Qx-28" style="edgeStyle=orthogonalEdgeStyle;rounded=0;orthogonalLoop=1;jettySize=auto;html=1;exitX=1;exitY=0.5;exitDx=0;exitDy=0;entryX=0.75;entryY=0;entryDx=0;entryDy=0;curved=1;strokeColor=#CC99FF;strokeWidth=2;flowAnimation=1;" edge="1" parent="1" source="NxOFG_oA1AnHpCEWyoos-18" target="Nhw3zXUjgfwCn45Vr-Qx-21">
          <mxGeometry relative="1" as="geometry" />
        </mxCell>
        <mxCell id="Nhw3zXUjgfwCn45Vr-Qx-29" style="edgeStyle=orthogonalEdgeStyle;rounded=0;orthogonalLoop=1;jettySize=auto;html=1;exitX=0.5;exitY=1;exitDx=0;exitDy=0;entryX=0.5;entryY=0;entryDx=0;entryDy=0;curved=1;strokeColor=#CC99FF;strokeWidth=2;flowAnimation=1;" edge="1" parent="1" source="NxOFG_oA1AnHpCEWyoos-18" target="NxOFG_oA1AnHpCEWyoos-23">
          <mxGeometry relative="1" as="geometry" />
        </mxCell>
        <mxCell id="NxOFG_oA1AnHpCEWyoos-18" value="" style="strokeColor=#CCFF99;shadow=1;strokeWidth=2;rounded=1;absoluteArcSize=1;arcSize=2;fillColor=#000000;" vertex="1" parent="1">
          <mxGeometry x="243" y="850" width="152" height="60" as="geometry" />
        </mxCell>
        <mxCell id="NxOFG_oA1AnHpCEWyoos-19" value="&lt;font color=&quot;#ffffff&quot; style=&quot;font-size: 16px;&quot;&gt;BigQuery&lt;/font&gt;" style="editableCssRules=.*;html=1;fontColor=#999999;shape=image;verticalLabelPosition=middle;verticalAlign=middle;labelPosition=right;align=left;spacingLeft=20;part=1;points=[];imageAspect=0;image=data:image/svg+xml,PHN2ZyB4bWxucz0iaHR0cDovL3d3dy53My5vcmcvMjAwMC9zdmciIHhtbG5zOnY9Imh0dHBzOi8vdmVjdGEuaW8vbmFubyIgd2lkdGg9IjIwLjAwMTA0NTIyNzA1MDc4IiBoZWlnaHQ9IjIwLjAwMTA0NTIyNzA1MDc4IiBmaWxsLXJ1bGU9ImV2ZW5vZGQiIHZpZXdCb3g9IjAgMCAyMC4wMDEwNDUyMjcwNTA3OCAyMC4wMDEwNDUyMjcwNTA3OCI+JiN4YTsJPHN0eWxlIHR5cGU9InRleHQvY3NzIj4mI3hhOwkuc3Qwe2ZpbGw6I2FlY2JmYTt9JiN4YTsJLnN0MXtmaWxsOiM2NjlkZjY7fSYjeGE7CS5zdDJ7ZmlsbDojNDI4NWY0O30mI3hhOwk8L3N0eWxlPiYjeGE7CTxwYXRoIGNsYXNzPSJzdDAiIGQ9Ik00LjczIDguODN2Mi42M2E0LjkxIDQuOTEgMCAwIDAgMS43MSAxLjc0VjguODN6Ii8+JiN4YTsJPHBhdGggY2xhc3M9InN0MSIgZD0iTTcuODkgNi40MXY3LjUzQTcuNjIgNy42MiAwIDAgMCA5IDE0YTggOCAwIDAgMCAxIDBWNi40MXoiLz4mI3hhOwk8cGF0aCBjbGFzcz0ic3QwIiBkPSJNMTEuNjQgOS44NnYzLjI5YTUgNSAwIDAgMCAxLjctMS44MlY5Ljg2eiIvPiYjeGE7CTxwYXRoIGNsYXNzPSJzdDIiIGQ9Ik0xNS43NCAxNC4zMmwtMS40MiAxLjQyYS40Mi40MiAwIDAgMCAwIC42bDMuNTQgMy41NGEuNDIuNDIgMCAwIDAgLjU5IDBsMS40My0xLjQzYS40Mi40MiAwIDAgMCAwLS41OWwtMy41NC0zLjU0YS40Mi40MiAwIDAgMC0uNiAwIi8+JiN4YTsJPHBhdGggY2xhc3M9InN0MSIgZD0iTTkgMGE5IDkgMCAxIDAgMCAxOEE5IDkgMCAxIDAgOSAwbTAgMTUuNjlhNi42OCA2LjY4IDAgMCAxIC4wMDctMTMuMzYgNi42OCA2LjY4IDAgMCAxIDQuNzI3IDExLjQwM0E2LjY4IDYuNjggMCAwIDEgOSAxNS42OSIvPiYjeGE7PC9zdmc+;" vertex="1" parent="NxOFG_oA1AnHpCEWyoos-18">
          <mxGeometry width="30" height="30" relative="1" as="geometry">
            <mxPoint x="15" y="15" as="offset" />
          </mxGeometry>
        </mxCell>
        <mxCell id="NxOFG_oA1AnHpCEWyoos-22" style="edgeStyle=orthogonalEdgeStyle;rounded=0;orthogonalLoop=1;jettySize=auto;html=1;exitX=0.5;exitY=1;exitDx=0;exitDy=0;entryX=0.564;entryY=0.015;entryDx=0;entryDy=0;strokeWidth=2;strokeColor=#0066CC;curved=1;flowAnimation=1;entryPerimeter=0;" edge="1" parent="1" source="NxOFG_oA1AnHpCEWyoos-21" target="NxOFG_oA1AnHpCEWyoos-18">
          <mxGeometry relative="1" as="geometry" />
        </mxCell>
        <mxCell id="NxOFG_oA1AnHpCEWyoos-21" value="&lt;b&gt;&lt;font style=&quot;font-size: 14px;&quot;&gt;Data Exporter&lt;/font&gt;&lt;/b&gt;" style="rounded=1;whiteSpace=wrap;html=1;fillColor=#000000;fontColor=#ffffff;strokeColor=#0066CC;strokeWidth=2;" vertex="1" parent="1">
          <mxGeometry x="-8" y="715" width="160" height="69" as="geometry" />
        </mxCell>
        <mxCell id="NxOFG_oA1AnHpCEWyoos-23" value="&lt;b&gt;&lt;font style=&quot;font-size: 14px;&quot;&gt;Quality Check&lt;/font&gt;&lt;/b&gt;" style="rounded=1;whiteSpace=wrap;html=1;fillColor=#000000;fontColor=#ffffff;strokeColor=#0066CC;strokeWidth=2;" vertex="1" parent="1">
          <mxGeometry x="-20" y="993" width="160" height="69" as="geometry" />
        </mxCell>
        <mxCell id="Nhw3zXUjgfwCn45Vr-Qx-3" value="&lt;font color=&quot;#ffffff&quot; style=&quot;font-size: 14px;&quot;&gt;&lt;b&gt;2&lt;/b&gt;&lt;/font&gt;" style="ellipse;whiteSpace=wrap;html=1;aspect=fixed;fillColor=#000000;strokeColor=#FFFFFF;strokeWidth=2;" vertex="1" parent="1">
          <mxGeometry x="-175" y="-24" width="32" height="32" as="geometry" />
        </mxCell>
        <mxCell id="Nhw3zXUjgfwCn45Vr-Qx-4" value="&lt;font color=&quot;#ffffff&quot; style=&quot;font-size: 14px;&quot;&gt;&lt;b&gt;4&lt;/b&gt;&lt;/font&gt;" style="ellipse;whiteSpace=wrap;html=1;aspect=fixed;fillColor=#000000;strokeColor=#FFFFFF;strokeWidth=2;" vertex="1" parent="1">
          <mxGeometry x="234" y="125" width="32" height="32" as="geometry" />
        </mxCell>
        <mxCell id="Nhw3zXUjgfwCn45Vr-Qx-23" style="edgeStyle=orthogonalEdgeStyle;rounded=0;orthogonalLoop=1;jettySize=auto;html=1;exitX=0;exitY=0.5;exitDx=0;exitDy=0;entryX=0;entryY=0.5;entryDx=0;entryDy=0;curved=1;strokeWidth=2;strokeColor=#CC99FF;flowAnimation=1;" edge="1" parent="1" source="Nhw3zXUjgfwCn45Vr-Qx-6" target="NxOFG_oA1AnHpCEWyoos-4">
          <mxGeometry relative="1" as="geometry">
            <Array as="points">
              <mxPoint x="-124" y="-127" />
              <mxPoint x="-124" y="114" />
            </Array>
          </mxGeometry>
        </mxCell>
        <mxCell id="Nhw3zXUjgfwCn45Vr-Qx-6" value="&lt;b&gt;&lt;font style=&quot;font-size: 14px;&quot;&gt;Fetch Data&lt;/font&gt;&lt;/b&gt;" style="rounded=1;whiteSpace=wrap;html=1;fillColor=#000000;fontColor=#ffffff;strokeColor=#0066CC;strokeWidth=2;direction=east;" vertex="1" parent="1">
          <mxGeometry x="-72" y="-162" width="160" height="71" as="geometry" />
        </mxCell>
        <mxCell id="Nhw3zXUjgfwCn45Vr-Qx-9" style="edgeStyle=orthogonalEdgeStyle;rounded=0;orthogonalLoop=1;jettySize=auto;html=1;exitX=0.5;exitY=1;exitDx=0;exitDy=0;entryX=1;entryY=0.5;entryDx=0;entryDy=0;strokeColor=#FF9933;curved=1;strokeWidth=2;flowAnimation=1;startArrow=none;startFill=0;endArrow=classic;endFill=1;" edge="1" parent="1" source="Nhw3zXUjgfwCn45Vr-Qx-7" target="NxOFG_oA1AnHpCEWyoos-4">
          <mxGeometry relative="1" as="geometry" />
        </mxCell>
        <mxCell id="Nhw3zXUjgfwCn45Vr-Qx-13" style="edgeStyle=orthogonalEdgeStyle;rounded=0;orthogonalLoop=1;jettySize=auto;html=1;exitX=0;exitY=0.5;exitDx=0;exitDy=0;entryX=0.5;entryY=0;entryDx=0;entryDy=0;strokeWidth=2;strokeColor=#FF99CC;curved=1;flowAnimation=1;startArrow=classic;startFill=1;endArrow=none;endFill=0;" edge="1" parent="1" source="Nhw3zXUjgfwCn45Vr-Qx-7" target="NxOFG_oA1AnHpCEWyoos-4">
          <mxGeometry relative="1" as="geometry" />
        </mxCell>
        <mxCell id="Nhw3zXUjgfwCn45Vr-Qx-7" value="&lt;b&gt;&lt;font style=&quot;font-size: 14px;&quot;&gt;Create Daily File&lt;/font&gt;&lt;/b&gt;" style="rounded=1;whiteSpace=wrap;html=1;fillColor=#000000;fontColor=#ffffff;strokeColor=#0066CC;strokeWidth=2;direction=east;" vertex="1" parent="1">
          <mxGeometry x="262" y="-11" width="160" height="71" as="geometry" />
        </mxCell>
        <mxCell id="Nhw3zXUjgfwCn45Vr-Qx-26" style="edgeStyle=orthogonalEdgeStyle;rounded=0;orthogonalLoop=1;jettySize=auto;html=1;exitX=0.55;exitY=0.95;exitDx=0;exitDy=0;exitPerimeter=0;entryX=1;entryY=0.5;entryDx=0;entryDy=0;strokeColor=#CC99FF;curved=1;flowAnimation=1;strokeWidth=2;" edge="1" parent="1" source="Nhw3zXUjgfwCn45Vr-Qx-8" target="Nhw3zXUjgfwCn45Vr-Qx-6">
          <mxGeometry relative="1" as="geometry" />
        </mxCell>
        <mxCell id="Nhw3zXUjgfwCn45Vr-Qx-8" value="&lt;font face=&quot;Verdana&quot; style=&quot;font-size: 16px;&quot; color=&quot;#ffffff&quot;&gt;&lt;b&gt;National Weather Service&lt;/b&gt;&lt;/font&gt;" style="ellipse;shape=cloud;whiteSpace=wrap;html=1;align=center;fillColor=#3333FF;" vertex="1" parent="1">
          <mxGeometry x="80" y="-355" width="320" height="126" as="geometry" />
        </mxCell>
        <mxCell id="Nhw3zXUjgfwCn45Vr-Qx-14" value="&lt;font color=&quot;#ffffff&quot; style=&quot;font-size: 14px;&quot;&gt;&lt;b&gt;3&lt;/b&gt;&lt;/font&gt;" style="ellipse;whiteSpace=wrap;html=1;aspect=fixed;fillColor=#000000;strokeColor=#FFFFFF;strokeWidth=2;" vertex="1" parent="1">
          <mxGeometry x="131" y="-13" width="32" height="32" as="geometry" />
        </mxCell>
        <mxCell id="Nhw3zXUjgfwCn45Vr-Qx-15" value="&lt;font color=&quot;#ffffff&quot; style=&quot;font-size: 14px;&quot;&gt;&lt;b&gt;5&lt;/b&gt;&lt;/font&gt;" style="ellipse;whiteSpace=wrap;html=1;aspect=fixed;fillColor=#000000;strokeColor=#FFFFFF;strokeWidth=2;" vertex="1" parent="1">
          <mxGeometry x="143" y="216" width="32" height="32" as="geometry" />
        </mxCell>
        <mxCell id="Nhw3zXUjgfwCn45Vr-Qx-16" value="&lt;font color=&quot;#ffffff&quot; style=&quot;font-size: 14px;&quot;&gt;&lt;b&gt;6&lt;/b&gt;&lt;/font&gt;" style="ellipse;whiteSpace=wrap;html=1;aspect=fixed;fillColor=#000000;strokeColor=#FFFFFF;strokeWidth=2;" vertex="1" parent="1">
          <mxGeometry x="193" y="410" width="32" height="32" as="geometry" />
        </mxCell>
        <mxCell id="Nhw3zXUjgfwCn45Vr-Qx-17" value="&lt;font color=&quot;#ffffff&quot; style=&quot;font-size: 14px;&quot;&gt;&lt;b&gt;7&lt;/b&gt;&lt;/font&gt;" style="ellipse;whiteSpace=wrap;html=1;aspect=fixed;fillColor=#000000;strokeColor=#FFFFFF;strokeWidth=2;" vertex="1" parent="1">
          <mxGeometry x="163" y="507" width="32" height="32" as="geometry" />
        </mxCell>
        <mxCell id="Nhw3zXUjgfwCn45Vr-Qx-18" value="&lt;font color=&quot;#ffffff&quot; style=&quot;font-size: 14px;&quot;&gt;&lt;b&gt;8&lt;/b&gt;&lt;/font&gt;" style="ellipse;whiteSpace=wrap;html=1;aspect=fixed;fillColor=#000000;strokeColor=#FFFFFF;strokeWidth=2;" vertex="1" parent="1">
          <mxGeometry x="143" y="639" width="32" height="32" as="geometry" />
        </mxCell>
        <mxCell id="Nhw3zXUjgfwCn45Vr-Qx-19" value="&lt;font color=&quot;#ffffff&quot; style=&quot;font-size: 14px;&quot;&gt;&lt;b&gt;9&lt;/b&gt;&lt;/font&gt;" style="ellipse;whiteSpace=wrap;html=1;aspect=fixed;fillColor=#000000;strokeColor=#FFFFFF;strokeWidth=2;" vertex="1" parent="1">
          <mxGeometry x="198" y="776" width="32" height="32" as="geometry" />
        </mxCell>
        <mxCell id="Nhw3zXUjgfwCn45Vr-Qx-20" value="&lt;font color=&quot;#ffffff&quot; style=&quot;font-size: 14px;&quot;&gt;&lt;b&gt;10&lt;/b&gt;&lt;/font&gt;" style="ellipse;whiteSpace=wrap;html=1;aspect=fixed;fillColor=#000000;strokeColor=#FFFFFF;strokeWidth=2;" vertex="1" parent="1">
          <mxGeometry x="195" y="967" width="32" height="32" as="geometry" />
        </mxCell>
        <mxCell id="Nhw3zXUjgfwCn45Vr-Qx-21" value="&lt;font color=&quot;#ffffff&quot; style=&quot;font-size: 14px;&quot;&gt;Google&lt;br&gt;Data Studio&lt;/font&gt;" style="sketch=0;html=1;verticalAlign=top;labelPosition=center;verticalLabelPosition=bottom;align=center;spacingTop=-6;fontSize=11;fontStyle=1;fontColor=#999999;shape=image;aspect=fixed;imageAspect=0;image=data:image/svg+xml,PHN2ZyB4bWxucz0iaHR0cDovL3d3dy53My5vcmcvMjAwMC9zdmciIGlkPSJzdmcxMDczNDEiIHZlcnNpb249IjEuMSIgdmlld0JveD0iMCAwIDI3NS45ODY2OSAyNTIuNDI5NTMiIGhlaWdodD0iMjUyLjQyOTUzbW0iIHdpZHRoPSIyNzUuOTg2NjltbSI+JiN4YTsgICYjeGE7ICA8ZGVmcyBpZD0iZGVmczEwNzMzOCIvPiYjeGE7ICA8ZyB0cmFuc2Zvcm09InRyYW5zbGF0ZSgzMi40NTE1MzMsLTIwLjk0NjAxKSIgaWQ9ImxheWVyMSI+JiN4YTsgICAgPHBhdGggZD0ibSAxMDEuNjgwMDksMjczLjM3NTU0IGMgLTE2LjQ1MjEyLDAgLTMwLjkxMzQyMiwtMTQuMTc3MzIgLTMwLjkxMzQyMiwtMzQuMjM1OSAwLC0xOS4xNzQ5OSAxNS4xNTE1MjIsLTMzLjY1ODA3IDMzLjUxMzYxMiwtMzMuNjU4MDcgaCAxMDQuODc0NTEgdiA2Ny44OTM5NyB6IE0gLTEuNTM4MTA0NiwxODEuODUzMzYgYyAtMTYuNDUyMTI2NCwwIC0zMC45MTM0Mjg0LC0xNC4xNzczMiAtMzAuOTEzNDI4NCwtMzQuMjM1ODkgMCwtMTkuMTc1IDE1LjE1MTUxOSwtMzMuNjU4MDggMzMuNTEzNjE4NCwtMzMuNjU4MDggSCAxMDUuOTM2NiB2IDY3Ljg5Mzk3IHogTSAxMDEuNjgwMSw4OC44Mzk5OCBjIC0xNi40NTIxMzEsMCAtMzAuOTEzNDMzLC0xNC4xNzczMTcgLTMwLjkxMzQzMywtMzQuMjM1ODk1IDAsLTE5LjE3NDk5NCAxNS4xNTE1MTksLTMzLjY1ODA3NSAzMy41MTM2MjMsLTMzLjY1ODA3NSBIIDIwOS4xNTQ4IHYgNjcuODkzOTcgeiIgc3R5bGU9Im9wYWNpdHk6MTtmaWxsOiM3NjllZjU7ZmlsbC1vcGFjaXR5OjE7c3Ryb2tlOm5vbmU7c3Ryb2tlLXdpZHRoOjAuMjY0NTgzcHg7c3Ryb2tlLWxpbmVjYXA6YnV0dDtzdHJva2UtbGluZWpvaW46bWl0ZXI7c3Ryb2tlLW9wYWNpdHk6MSIgaWQ9InBhdGgxMDc2MTAtMyIvPiYjeGE7ICAgIDxwYXRoIGQ9Im0gMjQzLjUzNTE1LDIzOS40Mjg1NSBjIDAsMTguOTg3NzUgLTE1LjM5MjYxLDMzLjk0Njk5IC0zNC4zODAzNiwzMy45NDY5OSAtMTguOTg3NzQsMCAtMzQuMzgwMzQsLTE0Ljk1OTI0IC0zNC4zODAzNCwtMzMuOTQ2OTkgMCwtMTguOTg3NzQgMTUuMzkyNiwtMzMuOTQ2OTggMzQuMzgwMzQsLTMzLjk0Njk4IDE4Ljk4Nzc1LC0xZS01IDM0LjM4MDM2LDE0Ljk1OTI0IDM0LjM4MDM2LDMzLjk0Njk4IHogTSAxNDAuMzE2OTYsMTQ3LjkwNjM4IGMgMCwxOC45ODc3NCAtMTUuMzkyNjEsMzMuOTQ2OTkgLTM0LjM4MDM2LDMzLjk0Njk4IC0xOC45ODc3NDUsMCAtMzQuMzgwMzU1LC0xNC45NTkyNCAtMzQuMzgwMzU1LC0zMy45NDY5OCAwLC0xOC45ODc3NSAxNS4zOTI2MSwtMzMuOTQ2OTkgMzQuMzgwMzU1LC0zMy45NDY5OSAxOC45ODc3NSwwIDM0LjM4MDM2LDE0Ljk1OTI0IDM0LjM4MDM2LDMzLjk0Njk5IHogTSAyNDMuNTM1MTUsNTQuODkyOTk0IGMgMCwxOC45ODc3NDcgLTE1LjM5MjYxLDMzLjk0Njk5IC0zNC4zODAzNiwzMy45NDY5ODYgLTE4Ljk4Nzc0LC0xMGUtNyAtMzQuMzgwMzQsLTE0Ljk1OTI0MyAtMzQuMzgwMzQsLTMzLjk0Njk4NiAwLC0xOC45ODc3NDMgMTUuMzkyNiwtMzMuOTQ2OTgzIDM0LjM4MDM0LC0zMy45NDY5ODQgMTguOTg3NzUsLTVlLTYgMzQuMzgwMzYsMTQuOTU5MjM3IDM0LjM4MDM2LDMzLjk0Njk4NCB6IiBzdHlsZT0ib3BhY2l0eToxO2ZpbGw6IzQwNzVlNjtmaWxsLW9wYWNpdHk6MTtzdHJva2Utd2lkdGg6MjE7c3Ryb2tlLWxpbmVqb2luOnJvdW5kIiBpZD0icGF0aDEwNzYzNC00Ii8+JiN4YTsgIDwvZz4mI3hhOzwvc3ZnPg==;" vertex="1" parent="1">
          <mxGeometry x="475" y="1053" width="42" height="38" as="geometry" />
        </mxCell>
        <mxCell id="Nhw3zXUjgfwCn45Vr-Qx-24" value="&lt;font color=&quot;#ffffff&quot; style=&quot;font-size: 14px;&quot;&gt;&lt;b&gt;11&lt;/b&gt;&lt;/font&gt;" style="ellipse;whiteSpace=wrap;html=1;aspect=fixed;fillColor=#000000;strokeColor=#FFFFFF;strokeWidth=2;" vertex="1" parent="1">
          <mxGeometry x="504" y="942" width="32" height="32" as="geometry" />
        </mxCell>
      </root>
    </mxGraphModel>
  </diagram>
  <diagram id="90TLceJU4ya8ESr_RYBQ" name="Page-2">
    <mxGraphModel grid="0" page="1" gridSize="10" guides="1" tooltips="1" connect="1" arrows="1" fold="1" pageScale="1" pageWidth="850" pageHeight="1100" math="0" shadow="0">
      <root>
        <mxCell id="0" />
        <mxCell id="1" parent="0" />
      </root>
    </mxGraphModel>
  </diagram>
</mxfile>
